<?xml version="1.0" standalone="no"?>
<!DOCTYPE svg PUBLIC "-//W3C//DTD SVG 20010904//EN"
 "http://www.w3.org/TR/2001/REC-SVG-20010904/DTD/svg10.dtd">
<svg version="1.0" xmlns="http://www.w3.org/2000/svg"
 width="200.000000pt" height="200.000000pt" viewBox="0 0 200.000000 200.000000"
 preserveAspectRatio="xMidYMid meet">

<g transform="translate(0.000000,200.000000) scale(0.100000,-0.100000)"
fill="#000000" stroke="none">
<path d="M166 1975 c-84 -30 -140 -97 -157 -188 -6 -36 -9 -233 -7 -545 3
-472 4 -488 24 -532 26 -54 75 -103 129 -127 34 -15 78 -18 308 -21 147 -2
267 -6 267 -8 0 -2 -30 -65 -67 -139 l-68 -135 -42 0 c-70 0 -99 -59 -43 -87
30 -15 943 -19 983 -4 30 12 39 43 20 70 -10 16 -25 21 -56 21 l-42 0 -68 135
c-37 74 -67 137 -67 139 0 2 120 6 268 8 292 4 305 6 374 67 19 17 45 53 57
81 21 50 22 56 19 583 -3 588 0 557 -69 626 -70 71 -6 66 -909 68 -682 2 -821
0 -854 -12z m1671 -105 c63 -38 63 -35 63 -505 l0 -425 -900 0 -900 0 0 421
c0 408 1 422 21 458 42 75 -19 70 879 71 781 0 806 -1 837 -20z m63 -1066 c0
-57 -22 -96 -70 -123 -37 -21 -44 -21 -826 -21 -731 0 -792 1 -823 18 -48 24
-73 62 -79 121 l-5 51 902 0 901 0 0 -46z m-667 -379 c37 -74 67 -137 67 -140
0 -3 -135 -5 -300 -5 l-300 0 70 140 70 140 163 0 162 0 68 -135z"/>
<path d="M538 1673 l-28 -4 0 -294 0 -293 83 -12 c106 -16 236 -9 271 13 51
34 61 69 61 217 0 155 -10 186 -71 215 -28 13 -55 16 -127 13 -51 -2 -99 -6
-107 -9 -12 -3 -16 11 -18 79 -3 89 0 85 -64 75z m292 -367 c0 -119 -3 -156
-14 -165 -9 -8 -48 -11 -112 -9 l-99 3 -3 149 c-2 101 1 153 9 162 8 10 39 14
115 14 l104 0 0 -154z"/>
<path d="M1118 1663 l-28 -4 0 -295 0 -294 50 0 50 0 0 179 c0 153 2 181 16
192 11 9 45 14 103 14 l86 0 3 -192 2 -193 45 0 45 0 0 209 0 209 -25 16 c-40
26 -141 32 -206 12 -30 -10 -60 -20 -66 -22 -10 -4 -13 16 -13 85 0 99 4 94
-62 84z"/>
<path d="M1533 823 c-32 -6 -33 -68 -2 -76 27 -7 19 -33 -10 -30 -11 2 -21 -1
-21 -6 0 -15 30 -21 51 -11 26 14 25 57 -1 65 -11 3 -20 13 -20 21 0 8 9 14
20 14 11 0 20 7 20 15 0 8 -3 14 -7 14 -5 -1 -18 -4 -30 -6z"/>
<path d="M1640 805 c-17 -20 -9 -48 18 -60 28 -12 28 -19 0 -33 -22 -10 -22
-11 -2 -11 29 -1 54 29 54 65 0 49 -42 73 -70 39z m48 -28 c2 -10 -3 -17 -12
-17 -18 0 -29 16 -21 31 9 14 29 6 33 -14z"/>
<path d="M1747 784 c-23 -47 -21 -54 9 -54 22 0 25 -2 14 -15 -11 -13 -8 -15
21 -15 26 0 30 3 19 10 -13 9 -13 11 0 21 11 8 12 12 3 16 -7 2 -13 11 -13 19
0 8 -4 14 -10 14 -5 0 -10 -7 -10 -15 0 -8 -7 -15 -15 -15 -14 0 -14 3 0 29 8
17 11 32 7 35 -5 3 -16 -11 -25 -30z"/>
<path d="M1595 711 c-6 -11 9 -23 19 -14 9 9 7 23 -3 23 -6 0 -12 -4 -16 -9z"/>
</g>
</svg>
